# xmcd CD database file
#
# Track frame offsets:
#	150
#	8939
#	27093
#
# Disc length: 601 seconds
#
# Revision: 0
# Processed by: cddbd v1.5.1PL0 Copyright (c) Steve Scherf et al.
# Submitted via: CDex 1.51
#
DISCID=17025703
DTITLE=CROWD - How to ふぅどる 〜ヘルス編〜 OriginalMaxiSingle
DYEAR=2004
DGENRE=Game
TTITLE0=中山マミ - たくさんの愛をプレゼント (ショート)
TTITLE1=中山マミ - たくさんの愛をプレゼント (フル)
TTITLE2=たくさんの愛をプレゼント (カラオケ)
EXTD=YEAR: 2004
EXTT0=
EXTT1=
EXTT2=
PLAYORDER=
